<svg id="trigger" xmlns="http://www.w3.org/2000/svg" xmlns:xlink="http://www.w3.org/1999/xlink" width="52.5"
     height="450" viewBox="0 0 61.5 215.4">
    <defs>
        <linearGradient id="linear-gradient" x1="6.21" y1="215.445" x2="6.21" y2="101.055" gradientUnits="userSpaceOnUse">
            <stop offset="0" stop-color="#515151"/>
            <stop offset="0.21" stop-color="#989898"/>
            <stop offset="0.51" stop-color="#e3e3e3"/>
            <stop offset="0.82" stop-color="#949494"/>
            <stop offset="1" stop-color="#444"/>
        </linearGradient>
        <linearGradient id="linear-gradient-2" x1="35.565" y1="191.97" x2="35.565" y2="124.515" xlink:href="#linear-gradient"/>
        <linearGradient id="linear-gradient-3" x1="30.69" y1="83.49" x2="38.115" y2="83.49" gradientUnits="userSpaceOnUse">
            <stop offset="0" stop-color="#6b6b6b"/>
            <stop offset="1" stop-color="#454545"/>
        </linearGradient>
        <radialGradient id="radial-gradient" cx="34.575" cy="-140.495" fx="47.13954865876576" r="18.06"
                        gradientTransform="translate(1.5 -0.3) scale(0.93 0.93)" gradientUnits="userSpaceOnUse">
            <stop offset="0" stop-color="#e47f7f"/>
            <stop offset="0.68" stop-color="#ae292a"/>
        </radialGradient>
    </defs>
    <path id="ring1"
          d="M0,101.1H10.95a7.65,7.65,0,0,1,7.65,7.65v99.15a7.65,7.65,0,0,1-7.65,7.65H0a0,0,0,0,1,0,0V101.1A0,0,0,0,1,0,101.1Z"
          fill="url(#linear-gradient)"/>
    <path id="ring2"
          d="M18.6,124.5H44.55a7.95,7.95,0,0,1,7.95,7.95v51.6a7.95,7.95,0,0,1-7.95,7.95H18.6a0,0,0,0,1,0,0V124.5A0,0,0,0,1,18.6,124.5Z"
          fill="url(#linear-gradient-2)"/>
    <ellipse id="hole" cx="34.35" cy="132.9" rx="10.85" ry="5.3" fill="#3f3f3f" transform="matrix(1,0,0,1,0,0)"/>
    <rect id="stick" x="25.75" y="-114" width="15" height="250.76" fill="url(#linear-gradient-3)"
          transform="matrix(1,0,0,1,0,0)" style=""/>
    <ellipse id="head" cx="33.35" cy="-130" rx="16.8" ry="16.95" fill="url(#radial-gradient)"
             transform="matrix(1,0,0,1,0,0)"/>
</svg>
